<svg xmlns="http://www.w3.org/2000/svg" width="155" height="20" viewBox="0 0 155 20"><path fill="#b17e48" d="M143.5.015l3.79 6.284 7.708 1.354-5.366 5.237.974 7.122-7.106-3.047-7.107 3.047.974-7.122-5.366-5.237 7.709-1.354L143.5.015"/><path fill="#b17e48" d="M110.5.015l3.79 6.284 7.708 1.354-5.366 5.237.974 7.122-7.106-3.047-7.107 3.047.974-7.122-5.365-5.237 7.708-1.354L110.5.015"/><path fill="#b17e48" d="M77.5.015l3.79 6.284 7.708 1.354-5.366 5.237.974 7.122-7.106-3.047-7.107 3.047.974-7.122-5.366-5.237 7.709-1.354L77.5.015"/><path fill="#b17e48" d="M44.5.015l3.79 6.284 7.708 1.354-5.366 5.237.974 7.122-7.106-3.047-7.107 3.047.974-7.122-5.366-5.237 7.709-1.354L44.5.015"/><path fill="#b17e48" d="M11.5.015l3.79 6.284 7.708 1.354-5.366 5.237.975 7.122-7.107-3.047-7.107 3.047.974-7.122L.001 7.653 7.71 6.299 11.5.015"/></svg>